<?xml version="1.0" encoding="UTF-8"?>
<svg xmlns="http://www.w3.org/2000/svg" viewBox="0 0 1095 1095" width="1095" height="1095">
<path d="M784.11 930.5C786.47 922.82 789.82 915.33 791.77 907.43C792.8 903.28 792.35 897.55 794.34 893.78C795.66 891.28 800.53 889.05 802.8 887.33C809.43 882.31 815.95 877.18 822.37 871.9C840.38 857.09 856.92 840.21 871.84 822.31C911.93 774.21 941.3 718.5 958.8 658.4C1010.86 479.52 940.32 278.35 788.88 170.6C750.6 143.36 707.66 123.9 662.68 110.72C624.38 99.5 583.46 93.52 543.5 94.55C501.45 95.63 459.71 102.82 419.87 116.42C392.75 125.69 366.23 138.27 341.89 153.41C304.37 176.76 269.99 205.06 241.19 238.71C154.83 339.63 116.44 475.29 136.13 606.5C150.75 704 200.92 795.68 273.19 862.33C292.82 880.43 314.58 897.27 337.5 910.99C347.81 917.16 358.43 922.64 368.88 928.5C374.24 946.44 383.46 949.11 399.36 956.17C410.81 961.25 422.45 965.52 434.44 969.16C474.33 981.27 516.81 986.82 558.5 984.68C573.61 983.9 588.56 982.4 603.47 979.81C609.22 978.8 620.2 975.19 625.5 975.7C628.75 976.02 632.18 979.03 635.08 980.43C640.59 983.1 646.56 984.67 651.97 987.5C648.14 989.09 644.1 989.67 640.05 990.53C629.56 992.74 619.13 994.78 608.5 996.19C574.99 1000.64 541.12 1001.61 507.45 998.38C338.22 982.14 189.56 865.56 129.15 707.36C54.2 511.13 122.75 278.42 294.66 157.09C322.9 137.16 353.41 120.8 385.58 108.12C428.64 91.15 475.28 80.56 521.5 78.01C561.1 75.83 600.6 79.03 639.39 87.26C814.96 124.5 948.31 267.92 985.77 441.58C1016.37 583.43 978.83 732.45 886.02 843.53C865.7 867.86 842.37 889.45 817.17 908.64C809.24 914.67 792.86 927.28 784.11 930.5ZM540.5 570.56C536.15 564.5 534.38 555.03 532.55 547.87C528.04 530.2 524.69 512.65 522.76 494.5C514 411.72 538.45 328.23 569.99 252.49C583.51 220.03 599.82 180.23 638.56 173.24C644.8 172.12 651.16 171.66 657.5 172.17C666.12 172.85 674.74 174.65 682.89 177.57C724.63 192.56 752.35 234.87 732.77 278.28C723.18 299.52 704.89 315.15 688.04 330.53C668.38 348.49 648.73 366.65 631.18 386.71C598.73 423.79 570.29 467.15 554.62 514.17C550.72 525.87 546.94 537.61 544.28 549.67C542.76 556.57 542.15 563.71 540.5 570.56ZM536.5 606.07C451.5 545.98 407.42 436.75 385.86 338.54C383.48 327.71 381.87 316.53 380.83 305.5C377.8 273.32 379.41 240.83 409.08 221.58C414.97 217.75 421.79 214.94 428.52 212.97C467.63 201.56 523.1 216.51 529.78 262.53C532.2 279.2 527.5 296.63 523.22 312.62C519.86 325.2 517.07 338.02 514.37 350.76C505.74 391.52 501.58 433.81 504.36 475.48C506.39 505.95 511.03 536.14 520.29 565.29C523.04 573.98 526.36 583.03 530.21 591.29C532.31 595.79 536.23 601.24 536.5 606.07ZM516.37 609.5C511.97 612.64 505.65 613.85 500.6 616.14C498.39 617.14 496.03 619.13 493.51 619.03C489.18 618.85 478.71 613.16 474.25 611.29C456.74 603.96 439.55 594.98 423.3 585.2C386.15 562.87 351.44 537.04 318.37 509.1C297.94 491.83 277.46 473.82 260.35 453.17C252.06 443.16 243.84 432.45 239.48 420.04C231.2 396.45 238.03 371.4 255.21 353.72C277.86 330.41 320.23 317.53 345.67 343.82C356.61 355.13 361.59 371.02 367.19 385.34C375.46 406.49 383.26 427.82 393.31 448.23C424.89 512.36 461.06 563.62 516.37 609.5ZM577.5 510.62C578.44 504.34 588.93 487.19 592.81 481.3C609.6 455.78 629.55 432 654.33 413.86C665.84 405.43 686.4 392.79 698.93 406.59C707.82 416.39 706.61 431.53 695.91 439.42C690.52 443.4 683.94 445.58 677.96 448.48C665.46 454.54 652.89 460.48 640.76 467.28C625.98 475.56 611.8 484.7 597.99 494.49C590.9 499.51 584.66 505.71 577.5 510.62ZM622.4 500.5C624.45 496.81 629.75 494.23 633.4 491.94C639.36 488.18 645.2 484.35 651.27 480.75C678.07 464.89 714.66 447.65 745.15 441.56C762.69 438.05 783.34 438.27 787.61 459.76C790.4 473.84 784.51 489.65 769.25 492.64C761.52 494.16 753.22 493.01 745.45 492.41C733.49 491.5 721.49 491.14 709.5 491.22C691.04 491.33 672.79 492.8 654.5 495.14C643.73 496.52 633.13 498.94 622.4 500.5ZM663.84 510.5C706.3 500.74 765.38 503.82 806.78 517.64C827.35 524.5 851.61 534.76 844.63 561.24C840.65 576.29 825.26 587.8 809.51 584.02C797.69 581.18 787.93 572.17 778.28 565.21C762.79 554.04 746.49 543.7 729.47 535.01C715.6 527.93 701.05 522.13 686.27 517.31C680.64 515.47 667.88 513.19 663.84 510.5ZM476.51 632.5C473.73 637.71 468.46 641.68 465.13 646.66C459.35 655.28 455.89 664.43 451.5 673.72C441.85 674.14 432.11 673.09 422.5 672.24C407.77 670.94 393.13 669.3 378.5 667.13C338.22 661.13 289.16 651.85 252.33 634.21C225.58 621.4 200.73 604.57 204.38 570.63C205.16 563.3 207.45 556.55 210.38 549.82C221.77 523.59 249.87 505.12 278.45 514.11C292.53 518.54 304.24 528.97 315.66 537.89C329.13 548.4 342.99 558.82 357.16 568.36C382.08 585.15 407.68 600.51 434.61 613.9C448.32 620.72 462.72 625.93 476.51 632.5ZM691.23 540.5C696.58 540.85 701.79 543.66 706.62 545.86C715.5 549.89 724.33 553.75 732.7 558.81C762.62 576.87 789.43 597.54 812.11 624.35C826.76 641.68 836.91 665.24 816.79 683.29C804.06 694.71 782.3 696.65 770.33 683.19C764.66 676.82 762.62 668.42 759.84 660.6C755.19 647.47 750.47 634.46 744.75 621.74C735.59 601.36 723.97 581.84 710.48 564.03C704.36 555.94 697.22 548.63 691.23 540.5ZM705.5 596.34C708.87 597.62 711.05 602.12 713.17 605.31C718.56 613.47 723.49 621.87 727.88 630.6C743.35 661.38 755.93 695.65 756.59 730.5C756.92 747.91 751.56 767.64 731.46 770.84C714.31 773.56 697.36 763.21 695.41 745.28C694.61 737.91 696.42 730.59 697.67 723.38C699.66 711.81 701.42 700.16 702.82 688.5C706.62 656.74 706.74 628.19 705.5 596.34ZM570.84 776.5C575.82 779.05 583.78 778.57 589.49 779.26C600.61 780.59 612.78 782.59 622.93 787.5C620.17 791.64 614.5 794.67 610.7 798.18C603.38 804.94 596.78 812.41 591.3 820.77C569.9 853.48 566.27 894.71 583.5 930.02C587.29 937.77 592.07 945.24 597.7 951.78C600.51 955.04 603.85 957.98 606.24 961.5C592.73 965.16 578.42 966.32 564.5 967.29C522.54 970.22 480.7 964.81 440.36 953.26C427.4 949.55 414.63 944.76 402.38 939.15C397.84 937.06 391.68 935.01 388.49 931C382.75 923.79 383.9 911.16 383.87 902.5C383.78 876.19 388.74 848.34 403.62 826.14C419.86 801.88 447.53 787.94 475.54 782.16C484.13 780.39 492.77 779.12 501.5 778.26C505 777.92 510.06 778.55 512.71 776.5C504.47 773.5 496.88 767.93 490.52 761.99C461.32 734.72 456.23 688.92 479.67 656.2C494.62 635.34 519.09 624.09 544.5 624.41C586.87 624.94 620.78 662.66 619.74 704.5C619.23 724.9 610.94 743.82 597.13 758.66C590.07 766.25 580.69 773.09 570.84 776.5ZM686.5 646.09C686.78 652.54 685.87 659.08 685.33 665.52C683.14 691.9 676.46 718.46 666.48 742.96C662.26 753.3 657.53 768.56 645.46 772.02C640.07 773.56 623.73 765.23 618.15 762.5C619.58 756.65 625.59 749.7 628.3 743.76C630.98 737.89 633.19 731.63 634.74 725.37C635.52 722.23 635.44 718.25 636.88 715.39C638.86 711.46 643.15 707.86 645.94 704.43C652.39 696.51 658.6 688.28 664.41 679.89C669.46 672.58 674.36 665.1 679.01 657.52C681.3 653.79 683.26 648.84 686.5 646.09ZM446.6 700.5C448.05 709.81 447.8 719.08 450.27 728.36C452.97 738.47 457.87 747.27 462.56 756.5C458.77 759.28 454.15 760.61 449.86 762.41C440.86 766.19 431.82 769.81 422.68 773.24C392.95 784.39 346.96 798.53 315.5 796.09C289.89 794.1 267.17 776.85 263.26 750.46C262.25 743.64 262.36 736.21 263.98 729.5C265.32 723.95 267.19 718.56 270.12 713.64C284.35 689.82 306.96 689.71 331.64 692.61C343.26 693.97 354.88 695.55 366.52 696.72C376.49 697.73 386.49 698.54 396.5 699.07C406.84 699.61 417.14 700.17 427.5 700.3C433.79 700.38 440.37 699.8 446.6 700.5ZM673.69 788.39C686.43 786.92 699.31 788.12 711.56 791.86C722.09 795.08 731.96 800.11 740.66 806.89C779.43 837.14 788.76 895.72 759.38 935.84C750.89 947.43 740.42 956.42 727.89 963.41C718.35 968.72 707.33 972.39 696.47 973.73C683.54 975.32 670.52 974.16 658.08 970.46C606.68 955.18 580.39 899.92 597.31 849.73C604.56 828.21 620.28 811.47 639.33 799.86C649.62 793.58 661.75 789.76 673.69 788.39ZM683.67 803.46C672.23 803.82 661.08 806.21 650.77 811.29C601.35 835.65 591.59 906.1 635.43 941.06C642.4 946.62 649.95 951.2 658.37 954.2C667.31 957.38 676.98 959.15 686.5 958.92C696.22 958.68 706.12 956.2 715.11 952.58C722.8 949.48 730.15 944.29 736.21 938.7C777.79 900.37 765.64 828.49 711.92 808.56C702.76 805.16 693.49 803.14 683.67 803.46ZM713.68 869.5C716.01 870.97 718.89 871.53 720.84 873.68C724.6 877.84 724.43 883.26 724.45 888.5C724.48 896.5 724.39 904.5 724.44 912.5C724.49 920.74 724.93 931.81 714.4 933.73C709.63 934.6 704.34 933.94 699.5 933.94C689.17 933.95 678.83 934.01 668.5 933.96C662.76 933.94 655.37 935.32 650.2 932.34C642.62 927.95 643.83 919 643.82 911.5C643.82 903.5 643.71 895.5 643.84 887.5C643.91 883.16 643.73 878.59 646.4 874.89C648.39 872.13 651.53 871.29 654.2 869.5C654.78 858.47 652.86 846.74 659.57 837.1C671.9 819.39 699.32 821.2 709.93 839.61C715.14 848.67 713.68 859.5 713.68 869.5ZM698.89 870.11C699.21 863.03 700.89 853.58 697.37 847.14C692.26 837.81 678.23 836.4 671.91 845.37C667.94 851.02 667.75 863.76 669.5 870.11C679.3 870.11 689.09 870.11 698.89 870.11ZM688.5 916.57C688.73 913.09 687.8 908.89 688.6 905.5C689.15 903.17 691.51 902.14 692.41 899.92C694.22 895.48 692.49 890.48 688.21 888.29C682.68 885.46 675.6 889.12 675.24 895.53C675.03 899.39 677.29 901.97 679.85 904.5C679.85 908.52 679.85 912.55 679.85 916.57C682.73 916.57 685.62 916.57 688.5 916.57Z" fill="#025aa9" fill-rule="evenodd" stroke="#025aa9" stroke-width="0.25" stroke-linejoin="round"/>
</svg>