<svg id="svg" version="1.1" width="400" height="467.33" viewBox="0 0 400 467.33" xmlns="http://www.w3.org/2000/svg">
  <g id="svgg">
    <path d="M278.200 11.763 C 269.070 13.547,263.932 16.876,255.394 26.541 C 251.047 31.462,241.734 47.500,236.429 59.200 C 235.681 60.850,234.489 63.460,233.779 65.000 C 231.981 68.901,229.106 75.667,227.830 79.000 C 227.240 80.540,226.603 82.160,226.414 82.600 C 226.224 83.040,225.504 84.840,224.813 86.600 C 224.123 88.360,223.396 90.160,223.199 90.600 C 223.001 91.040,222.036 93.740,221.055 96.600 C 220.073 99.460,218.789 103.060,218.200 104.600 C 217.612 106.140,216.631 108.930,216.020 110.800 C 213.599 118.208,209.975 129.619,208.779 133.600 C 208.085 135.910,207.370 138.160,207.189 138.600 C 207.008 139.040,206.765 139.850,206.648 140.400 C 206.531 140.950,205.996 143.020,205.460 145.000 C 202.275 156.754,201.460 159.946,200.813 163.200 C 200.616 164.190,200.161 166.260,199.801 167.800 C 199.441 169.340,198.977 171.668,198.769 172.974 C 198.561 174.280,198.220 175.990,198.011 176.774 C 197.802 177.558,197.360 179.730,197.028 181.600 C 196.697 183.470,196.143 186.530,195.799 188.400 C 195.454 190.270,194.999 193.150,194.788 194.800 C 194.577 196.450,194.123 199.960,193.780 202.600 C 192.915 209.257,192.478 213.077,191.996 218.200 C 191.768 220.620,191.378 224.670,191.129 227.200 C 190.490 233.690,190.481 268.246,191.117 273.400 C 191.388 275.600,191.791 279.057,192.011 281.083 C 192.552 286.050,192.727 286.419,193.644 284.526 C 194.050 283.687,194.539 282.730,194.729 282.400 C 194.920 282.070,196.769 278.386,198.838 274.214 C 200.907 270.042,203.212 265.542,203.959 264.214 C 204.707 262.886,206.057 260.395,206.959 258.677 C 207.862 256.960,208.780 255.250,209.001 254.877 C 209.221 254.505,210.466 252.220,211.768 249.800 C 213.069 247.380,214.531 244.860,215.016 244.200 C 215.502 243.540,216.392 242.100,216.994 241.000 C 218.959 237.413,220.149 235.427,221.284 233.840 C 221.898 232.982,222.400 232.145,222.400 231.980 C 222.400 231.579,230.415 218.831,233.829 213.800 C 235.322 211.600,238.598 206.740,241.109 203.000 C 243.620 199.260,246.619 194.940,247.773 193.400 C 248.927 191.860,252.016 187.746,254.636 184.259 C 257.256 180.771,260.030 177.065,260.800 176.023 C 269.175 164.696,282.063 149.987,293.374 138.847 C 310.842 121.643,317.145 115.287,320.223 111.774 C 339.577 89.685,345.105 74.398,340.393 56.000 C 339.526 52.617,336.799 46.734,334.700 43.719 C 333.875 42.534,333.200 41.392,333.200 41.182 C 333.200 40.972,333.059 40.800,332.886 40.800 C 332.714 40.800,332.263 40.277,331.886 39.637 C 327.161 31.638,313.473 20.940,299.529 14.347 C 294.691 12.059,283.575 10.713,278.200 11.763 M145.000 47.026 C 134.881 47.968,125.669 50.953,121.425 54.663 C 115.079 60.213,113.673 62.262,111.237 69.505 C 107.613 80.285,107.093 94.425,109.614 113.600 C 110.895 123.341,113.105 136.676,113.973 139.901 C 114.206 140.766,114.574 142.356,114.791 143.436 C 115.008 144.516,115.646 147.110,116.209 149.200 C 116.772 151.290,117.473 154.080,117.767 155.400 C 118.549 158.915,119.996 164.478,120.367 165.400 C 120.668 166.148,121.456 168.735,123.592 176.000 C 125.642 182.970,129.158 193.514,132.796 203.600 C 133.709 206.130,134.735 209.008,135.076 209.996 C 135.890 212.351,141.854 227.343,142.796 229.400 C 143.199 230.280,143.982 231.990,144.538 233.200 C 145.093 234.410,145.926 236.368,146.388 237.551 C 147.502 240.401,154.917 255.363,155.300 255.533 C 155.465 255.607,155.600 255.880,155.600 256.140 C 155.600 256.400,156.337 257.870,157.238 259.406 C 158.139 260.943,159.444 263.242,160.138 264.516 C 160.832 265.790,161.767 267.500,162.216 268.316 C 163.003 269.749,165.048 272.966,168.626 278.400 C 171.393 282.603,174.436 286.870,176.926 290.039 C 178.206 291.668,180.212 294.260,181.384 295.800 C 182.556 297.340,184.164 299.220,184.957 299.978 L 186.400 301.357 186.400 298.899 C 186.400 297.547,186.136 294.317,185.812 291.720 C 185.489 289.124,185.035 285.470,184.804 283.600 C 184.572 281.730,184.186 277.680,183.946 274.600 C 183.707 271.520,183.347 267.020,183.146 264.600 C 182.063 251.537,182.302 222.896,183.607 209.400 C 183.819 207.200,184.174 203.420,184.394 201.000 C 185.305 190.997,187.289 178.758,190.845 161.200 C 191.313 158.890,191.855 156.190,192.049 155.200 C 192.243 154.210,192.741 151.960,193.157 150.200 C 193.572 148.440,194.217 145.560,194.589 143.800 C 194.962 142.040,195.536 139.430,195.865 138.000 C 196.194 136.570,196.622 134.680,196.818 133.800 C 197.013 132.920,197.472 130.850,197.838 129.200 C 198.204 127.550,198.823 124.940,199.213 123.400 C 199.603 121.860,200.039 119.790,200.182 118.800 C 200.325 117.810,200.615 116.190,200.826 115.200 C 203.437 102.975,204.350 88.248,202.884 82.000 C 201.370 75.549,201.124 74.794,199.096 70.400 C 193.630 58.557,180.845 50.961,161.000 47.767 C 157.379 47.184,147.978 46.749,145.000 47.026 M62.600 131.800 C 58.062 132.632,55.539 133.156,53.200 133.753 C 50.611 134.413,43.659 137.053,42.943 137.647 C 42.670 137.874,41.671 138.365,40.723 138.737 C 37.061 140.178,29.010 145.789,25.269 149.508 C 9.155 165.528,10.836 184.844,30.333 207.703 C 39.147 218.037,53.891 232.331,67.800 244.025 C 68.680 244.765,70.216 246.097,71.213 246.985 C 72.211 247.873,73.917 249.320,75.006 250.200 C 76.094 251.080,77.987 252.700,79.211 253.800 C 88.327 261.987,102.341 273.228,117.400 284.433 C 121.979 287.840,135.213 296.715,141.800 300.796 C 150.010 305.882,169.412 316.400,170.585 316.400 C 170.716 316.400,172.123 317.015,173.711 317.768 C 179.385 320.453,190.450 324.542,191.439 324.318 C 191.917 324.210,191.297 323.355,188.450 320.200 C 185.442 316.867,181.112 311.826,180.157 310.546 C 179.523 309.695,178.909 308.910,178.792 308.800 C 178.675 308.690,177.453 307.160,176.076 305.400 C 174.700 303.640,173.069 301.570,172.453 300.800 C 168.067 295.320,151.200 269.721,151.200 268.544 C 151.200 268.389,150.948 267.979,150.641 267.631 C 150.004 266.913,149.058 265.261,146.499 260.400 C 145.514 258.530,144.118 255.920,143.396 254.600 C 137.972 244.678,128.122 223.886,123.784 213.200 C 122.757 210.670,121.662 208.024,121.350 207.321 C 121.037 206.617,120.227 204.547,119.549 202.721 C 118.871 200.894,117.866 198.230,117.317 196.800 C 116.767 195.370,115.729 192.580,115.010 190.600 C 114.291 188.620,113.604 186.730,113.482 186.400 C 112.510 183.755,111.464 180.706,111.014 179.200 C 99.552 140.883,85.910 127.526,62.600 131.800 M275.600 206.733 C 263.763 211.794,248.851 224.335,234.634 241.186 C 231.987 244.323,230.431 246.379,224.472 254.614 C 223.830 255.501,222.118 258.166,220.667 260.536 C 217.667 265.435,217.752 265.507,222.817 262.365 C 224.560 261.284,226.076 260.400,226.186 260.400 C 226.296 260.400,227.604 259.653,229.093 258.740 C 235.496 254.813,250.452 247.339,259.802 243.395 C 269.005 239.512,270.739 238.810,275.600 236.999 C 280.648 235.119,281.099 234.934,285.360 232.996 C 296.143 228.089,297.994 221.954,291.577 212.391 C 287.133 205.770,282.057 203.973,275.600 206.733 M319.400 233.656 C 313.715 234.362,310.106 234.925,306.400 235.682 C 298.634 237.268,297.336 237.562,295.390 238.175 C 294.296 238.519,292.410 239.094,291.200 239.453 C 289.990 239.812,288.433 240.352,287.740 240.653 C 287.046 240.954,286.279 241.200,286.035 241.200 C 285.644 241.200,279.133 243.521,277.000 244.421 C 266.347 248.915,258.381 252.787,252.855 256.158 C 250.955 257.317,248.590 258.728,247.600 259.294 C 246.610 259.861,245.406 260.746,244.924 261.262 L 244.048 262.200 267.524 262.225 L 291.000 262.250 301.400 263.563 C 332.133 267.443,336.221 267.185,340.400 261.102 C 344.810 254.683,345.576 244.748,342.102 239.023 C 339.316 234.430,330.311 232.301,319.400 233.656 M35.800 245.791 C 14.051 250.284,-4.070 278.480,4.245 294.890 C 7.524 301.360,20.526 309.983,34.600 315.022 C 35.920 315.494,38.260 316.377,39.800 316.984 C 42.915 318.211,53.531 321.906,55.400 322.413 C 56.060 322.592,57.950 323.225,59.600 323.821 C 61.250 324.416,64.040 325.316,65.800 325.821 C 67.560 326.326,70.890 327.289,73.200 327.962 C 82.131 330.560,83.739 331.016,88.200 332.211 C 93.600 333.658,98.935 334.904,105.581 336.270 C 112.682 337.731,114.284 338.017,124.000 339.559 C 126.970 340.031,130.300 340.583,131.400 340.786 C 144.929 343.284,186.016 344.410,199.200 342.644 L 203.000 342.135 201.451 341.468 C 200.599 341.100,199.765 340.800,199.597 340.800 C 199.074 340.800,193.083 338.775,191.400 338.029 C 190.520 337.639,188.360 336.821,186.600 336.211 C 183.397 335.101,182.626 334.783,177.400 332.417 C 175.860 331.720,173.250 330.588,171.600 329.901 C 169.950 329.215,167.430 328.036,166.000 327.281 C 164.570 326.526,161.330 324.830,158.800 323.512 C 156.270 322.194,153.916 320.865,153.569 320.558 C 153.221 320.251,152.803 320.000,152.638 320.000 C 152.397 320.000,146.557 316.741,144.000 315.179 C 143.670 314.978,141.634 313.730,139.476 312.406 C 137.318 311.083,135.455 310.000,135.338 310.000 C 135.220 310.000,133.656 309.036,131.862 307.859 C 130.068 306.681,127.160 304.799,125.400 303.677 C 117.937 298.917,101.810 287.123,94.400 281.006 C 93.190 280.007,91.570 278.700,90.800 278.102 C 87.854 275.811,78.543 267.836,77.400 266.624 C 77.180 266.391,75.740 265.120,74.201 263.800 C 72.661 262.480,70.231 260.298,68.801 258.951 C 57.135 247.965,46.263 243.630,35.800 245.791 M269.612 270.748 C 265.862 271.064,266.646 271.592,280.000 277.735 C 283.021 279.125,291.798 283.815,294.035 285.235 C 295.044 285.876,295.987 286.400,296.129 286.400 C 296.783 286.400,309.437 294.397,315.433 298.600 C 319.567 301.497,326.590 306.996,331.202 310.946 C 346.293 323.871,356.503 323.845,366.431 310.857 C 370.473 305.569,371.589 296.880,368.549 294.358 C 368.247 294.107,368.000 293.727,368.000 293.513 C 368.000 292.587,363.199 288.240,360.421 286.650 C 353.884 282.910,344.660 278.800,342.803 278.800 C 342.449 278.800,341.989 278.651,341.780 278.470 C 341.571 278.288,340.680 277.939,339.800 277.693 C 338.920 277.448,337.300 276.979,336.200 276.651 C 331.678 275.300,317.736 272.662,308.400 271.390 C 303.114 270.670,275.872 270.219,269.612 270.748 M279.600 292.564 C 279.600 293.095,280.940 295.275,284.956 301.280 C 290.195 309.114,290.600 309.751,291.620 311.771 C 292.184 312.887,293.380 315.060,294.279 316.600 C 296.578 320.542,302.874 333.598,304.626 338.059 C 307.093 344.341,308.030 346.819,309.668 351.400 C 311.241 355.801,314.300 365.372,314.696 367.136 C 315.455 370.507,319.961 377.574,323.252 380.552 C 331.129 387.680,347.503 383.681,354.898 372.824 C 360.765 364.209,352.718 347.266,334.179 329.200 C 331.131 326.230,327.768 322.945,326.707 321.900 C 325.645 320.855,324.682 320.000,324.567 320.000 C 324.451 320.000,323.148 318.960,321.670 317.688 C 312.296 309.620,301.048 302.270,288.660 296.118 C 281.847 292.735,279.600 291.853,279.600 292.564 M278.959 317.600 C 279.860 333.362,279.663 347.556,278.407 357.200 C 278.192 358.850,277.735 362.360,277.392 365.000 C 276.538 371.569,274.909 380.439,273.499 386.200 C 272.853 388.840,272.183 391.630,272.009 392.400 C 271.836 393.170,271.385 394.880,271.008 396.200 C 270.631 397.520,270.183 399.230,270.012 400.000 C 269.841 400.770,269.223 403.110,268.639 405.200 C 266.341 413.421,266.012 415.053,266.006 418.285 C 265.982 431.235,284.327 439.836,299.618 434.044 C 314.751 428.312,315.187 393.994,300.610 356.000 C 300.315 355.230,299.670 353.520,299.177 352.200 C 298.685 350.880,297.768 348.662,297.141 347.272 C 296.513 345.882,296.000 344.671,296.000 344.581 C 296.000 344.382,293.316 338.461,292.812 337.546 C 292.613 337.186,291.153 334.306,289.567 331.146 C 287.980 327.986,286.199 324.680,285.609 323.800 C 285.018 322.920,284.430 321.912,284.303 321.559 C 283.944 320.570,280.448 315.215,279.533 314.255 L 278.718 313.400 278.959 317.600 M270.557 334.920 C 269.225 337.569,265.489 344.484,264.032 347.000 C 260.124 353.746,258.474 356.491,257.179 358.400 C 256.358 359.610,254.511 362.400,253.074 364.600 C 247.477 373.173,235.875 388.240,229.652 395.017 C 228.633 396.126,227.368 397.566,226.840 398.217 C 226.311 398.868,224.961 400.395,223.840 401.612 C 222.718 402.829,221.105 404.629,220.256 405.612 C 218.267 407.914,214.114 412.259,204.358 422.246 C 196.264 430.531,194.976 432.201,193.602 436.195 C 188.197 451.905,215.590 468.398,232.000 459.313 C 236.303 456.931,245.200 447.566,245.200 445.419 C 245.200 445.277,245.799 444.225,246.530 443.081 C 247.262 441.936,248.769 439.110,249.880 436.800 C 254.142 427.936,254.885 426.099,259.820 412.200 C 260.814 409.400,264.329 396.553,265.237 392.400 C 268.560 377.201,270.507 361.842,271.260 344.875 C 271.696 335.059,271.547 332.952,270.557 334.920 M55.400 342.865 C 43.696 346.119,38.010 355.779,38.016 372.400 C 38.021 387.809,43.137 397.152,53.423 400.535 C 59.566 402.555,74.929 402.957,86.400 401.397 C 88.930 401.053,92.284 400.609,93.853 400.411 C 95.422 400.212,98.662 399.675,101.053 399.218 C 103.444 398.761,109.241 397.660,113.936 396.770 C 118.631 395.881,124.571 394.615,127.136 393.957 C 129.701 393.300,133.510 392.345,135.600 391.836 C 145.233 389.489,156.680 385.983,165.800 382.587 C 167.780 381.849,170.750 380.768,172.400 380.184 C 174.050 379.600,175.940 378.890,176.600 378.605 C 177.260 378.320,179.150 377.508,180.800 376.800 C 186.074 374.537,186.497 374.343,192.600 371.384 C 204.924 365.411,222.101 354.777,225.661 350.916 L 226.600 349.898 225.400 350.114 C 224.740 350.233,222.400 350.692,220.200 351.135 C 212.706 352.642,204.317 353.849,191.800 355.219 C 176.339 356.912,145.734 355.905,124.800 353.015 C 122.490 352.696,118.620 352.161,116.200 351.827 C 109.305 350.873,93.043 347.578,84.200 345.341 C 70.578 341.896,61.647 341.128,55.400 342.865 M247.400 347.155 C 246.740 347.569,245.283 348.693,244.162 349.654 C 241.787 351.688,239.339 353.490,235.536 356.000 C 234.037 356.990,231.323 358.806,229.505 360.036 C 221.211 365.648,208.072 372.857,194.400 379.299 C 186.424 383.056,184.331 384.000,183.971 384.000 C 183.761 384.000,183.277 384.172,182.895 384.382 C 181.957 384.899,176.789 387.200,176.568 387.200 C 176.471 387.200,175.628 387.556,174.696 387.991 C 172.686 388.929,168.702 390.384,159.200 393.651 C 149.493 396.988,148.256 397.366,141.000 399.209 C 124.765 403.332,117.694 407.378,114.104 414.600 C 111.294 420.252,112.119 430.086,115.932 436.400 C 116.397 437.170,117.080 438.340,117.450 439.000 C 124.608 451.767,135.297 456.405,148.400 452.430 C 153.861 450.774,164.579 444.324,173.001 437.627 C 174.541 436.402,176.431 434.923,177.201 434.341 C 177.970 433.758,178.960 432.948,179.400 432.541 C 179.840 432.133,181.190 430.995,182.400 430.010 C 185.752 427.283,185.971 427.093,189.400 423.915 C 191.160 422.283,193.590 420.072,194.800 419.001 C 218.295 398.203,239.988 370.134,248.215 349.887 C 249.690 346.256,249.555 345.804,247.400 347.155" fill="#0665a4" fill-rule="evenodd"/>
  </g>
</svg>
